<?xml version="1.0" encoding="utf-8"?>
<!-- Generator: Adobe Illustrator 24.3.0, SVG Export Plug-In . SVG Version: 6.00 Build 0)  -->
<svg version="1.1" id="Layer_1" xmlns="http://www.w3.org/2000/svg" xmlns:xlink="http://www.w3.org/1999/xlink" x="0px" y="0px"
	 viewBox="0 0 24 24" style="enable-background:new 0 0 24 24;" xml:space="preserve">
<path d="M13.6,8.4h-3.4V12h3.4c1,0,1.8-0.8,1.8-1.8C15.4,9.2,14.6,8.4,13.6,8.4z M12,0C5.4,0,0,5.4,0,12s5.4,12,12,12s12-5.4,12-12
	S18.6,0,12,0z M13.6,14.4h-3.4V18H7.8V6h5.8c2.3,0,4.2,1.9,4.2,4.2C17.8,12.5,15.9,14.4,13.6,14.4L13.6,14.4z"/>
</svg>
