<?xml version="1.0" encoding="utf-8"?>
<!-- Generator: Adobe Illustrator 24.3.0, SVG Export Plug-In . SVG Version: 6.00 Build 0)  -->
<svg version="1.1" id="Layer_1" xmlns="http://www.w3.org/2000/svg" xmlns:xlink="http://www.w3.org/1999/xlink" x="0px" y="0px"
	 viewBox="0 0 24 24" style="enable-background:new 0 0 24 24;" xml:space="preserve">
<path d="M9.6,8.2L14,1.8C14.8,0.6,15.9,0,17.2,0c1.1,0,2,0.4,2.8,1.1c0.8,0.8,1.2,1.7,1.2,2.7c0,0.8-0.2,1.5-0.6,2.1l-4,5.8l4.9,6.2
	c0.5,0.6,0.7,1.3,0.7,2.2c0,1.1-0.4,2-1.1,2.8c-0.8,0.8-1.7,1.2-2.8,1.2c-1.2,0-2.1-0.4-2.7-1.2l-5.9-7.4v4.1c0,1.2-0.2,2.1-0.6,2.7
	C8.3,23.4,7.2,24,5.8,24c-1.3,0-2.3-0.4-3-1.3c-0.7-0.8-1-1.9-1-3.2V4.4c0-1.2,0.3-2.3,1-3.1C3.5,0.4,4.5,0,5.7,0
	c1.2,0,2.2,0.4,2.9,1.3c0.4,0.5,0.7,1,0.8,1.4C9.6,3,9.6,3.6,9.6,4.4L9.6,8.2L9.6,8.2L9.6,8.2z"/>
</svg>
